# xmcd
#
# Track frame offsets:
#	150
#	15851
#	35392
#	55059
#	69923
#	83795
#	100037
#	114648
#	129472
#	145872
#	164807
#	180987
#	181795
#	182680
#
# Disc length: 2440
#
# Revision: 1
# Processed by: cddbd v1.5.1PL0 Copyright (c) Steve Scherf et al.
# Submitted via: VisiTrax 2.9.5.180 - For more info visit www.synapsa.com
# Normalized: r0:DSETVAR1
#
DISCID=aa09860e
DTITLE=Various Artist - CDX 206 February 1999
DYEAR=1999
DGENRE=
TTITLE0=Michael McDonald/Kathy Mattea - Among the missing
TTITLE1=Susan Ashton - Faith of the heart
TTITLE2=Susan Ashton - Faith of the heart
TTITLE3=Graham Brown - Happy ever after
TTITLE4=Toby Keith - If a man answers
TTITLE5=Lonestar - Saturday night
TTITLE6=Keith Harling - There goes the neighborhood
TTITLE7=Martina McBride/Jim Brickman - Valentine
TTITLE8=Sons of the Desert - What about you
TTITLE9=Doug wayne - Damn the winter
TTITLE10=Jeff Weber - This is love
TTITLE11=Martina McBride - Liner
TTITLE12=Martina McBride - Liner
TTITLE13=Martina McBride - Liner
EXTD=
EXTT0=
EXTT1=
EXTT2=
EXTT3=
EXTT4=
EXTT5=
EXTT6=
EXTT7=
EXTT8=
EXTT9=
EXTT10=
EXTT11=
EXTT12=
EXTT13=
PLAYORDER=
